<svg xmlns="http://www.w3.org/2000/svg" xmlns:xlink="http://www.w3.org/1999/xlink" version="1.1" x="0px" y="0px" viewBox="0 0 41.041 46.5" enable-background="new 0 0 41.041 37.2" xml:space="preserve"><path fill-rule="evenodd" clip-rule="evenodd" d="M38.496,6.612c-0.219,1.613-6.31,1.613-11.249,1.48  c-1.917-0.052-4.017,0.039-5.92,0C15.277,7.971,9.676,8.533,4.435,7.994c-0.208-1.292,0.578-2.106,0.61-3.158  c7.524-0.454,14.4,0.33,21.314,0.296C30.507,5.111,38.123,3.985,38.496,6.612z"/><path fill-rule="evenodd" clip-rule="evenodd" d="M38.496,12.532c-0.474,4.477-7.106,2.945-10.472,3.093  c-4.647,0.204-8.199-0.272-12.026-0.133c-3.997,0.146-6.938,1.135-11.84,0c-0.108-3.413,3.823-2.642,6.808-2.664  C20.164,12.762,31.316,11.56,38.496,12.532z"/><path fill-rule="evenodd" clip-rule="evenodd" d="M37.312,21.116c-0.049,0.345,0.064,0.526,0.296,0.593  c-1.487,2.9-5.925,1.938-9.354,2.088c-7.897,0.347-16.034,0.848-24.437-0.617c0.006-0.882,0.016-2.683,0.932-2.655  C16.638,20.849,26.273,19.804,37.312,21.116z"/><path fill-rule="evenodd" clip-rule="evenodd" d="M3.269,31.773c0-0.789,0-1.578,0-2.368c7.632-0.666,18.242-1.068,29.01-0.592  c2.921,0.129,5.881-0.086,5.921,1.775c0.05,2.363-4.022,1.739-5.319,1.765C24.929,32.515,11.388,33.087,3.269,31.773z"/><text x="0" y="52.2" fill="#000000" font-size="5px" font-weight="bold" font-family="'Helvetica Neue', Helvetica, Arial-Unicode, Arial, Sans-serif">Created by James Cottell</text><text x="0" y="57.2" fill="#000000" font-size="5px" font-weight="bold" font-family="'Helvetica Neue', Helvetica, Arial-Unicode, Arial, Sans-serif">from the Noun Project</text></svg>