<?xml version="1.0" encoding="UTF-8" standalone="no"?>
<svg
   xmlns:dc="http://purl.org/dc/elements/1.1/"
   xmlns:cc="http://creativecommons.org/ns#"
   xmlns:rdf="http://www.w3.org/1999/02/22-rdf-syntax-ns#"
   xmlns:svg="http://www.w3.org/2000/svg"
   xmlns="http://www.w3.org/2000/svg"
   xmlns:sodipodi="http://sodipodi.sourceforge.net/DTD/sodipodi-0.dtd"
   xmlns:inkscape="http://www.inkscape.org/namespaces/inkscape"
   data-name="Layer 2"
   viewBox="0 0 28 35"
   x="0px"
   y="0px"
   version="1.1"
   id="svg14"
   sodipodi:docname="logo.svg"
   inkscape:version="1.0.1 (3bc2e813f5, 2020-09-07)"
   inkscape:export-filename="C:\Users\Silviu\Desktop\JS\SCHAT\img\logo.png"
   inkscape:export-xdpi="96"
   inkscape:export-ydpi="96">
  <metadata
     id="metadata20">
    <rdf:RDF>
      <cc:Work
         rdf:about="">
        <dc:format>image/svg+xml</dc:format>
        <dc:type
           rdf:resource="http://purl.org/dc/dcmitype/StillImage" />
      </cc:Work>
    </rdf:RDF>
  </metadata>
  <defs
     id="defs18" />
  <sodipodi:namedview
     pagecolor="#ffffff"
     bordercolor="#666666"
     borderopacity="1"
     objecttolerance="10"
     gridtolerance="10"
     guidetolerance="10"
     inkscape:pageopacity="0"
     inkscape:pageshadow="2"
     inkscape:window-width="1920"
     inkscape:window-height="1001"
     id="namedview16"
     showgrid="false"
     inkscape:zoom="8.3842661"
     inkscape:cx="15.633479"
     inkscape:cy="15.472076"
     inkscape:window-x="-9"
     inkscape:window-y="-9"
     inkscape:window-maximized="1"
     inkscape:current-layer="svg14"
     inkscape:document-rotation="0" />
  <title
     id="title2">UI</title>
  <path
     d="M14,1A13,13,0,0,0,2.392,19.857L1.32,24.5A1.822,1.822,0,0,0,3.5,26.68l4.641-1.072A13,13,0,1,0,14,1Zm0,24a11,11,0,0,1-5.243-1.328,1.008,1.008,0,0,0-.7-.1l-4.721,1.09,1.09-4.72a1,1,0,0,0-.1-.7A11,11,0,1,1,14,25Z"
     id="path4" />
  <path
     d="M19,10H9a1,1,0,0,0,0,2H19a1,1,0,0,0,0-2Z"
     id="path6" />
  <path
     d="M14,16H9a1,1,0,0,0,0,2h5a1,1,0,0,0,0-2Z"
     id="path8" />
</svg>
